<?xml version="1.0" standalone="no"?>
<!DOCTYPE svg PUBLIC "-//W3C//DTD SVG 20010904//EN"
 "http://www.w3.org/TR/2001/REC-SVG-20010904/DTD/svg10.dtd">
<svg version="1.0" xmlns="http://www.w3.org/2000/svg"
 width="256.000000pt" height="170.000000pt" viewBox="0 0 256.000000 170.000000"
 preserveAspectRatio="xMidYMid meet">

<g transform="translate(0.000000,170.000000) scale(0.100000,-0.100000)"
fill="#000000" stroke="none">
<path d="M1038 1588 l-3 -113 -43 -6 c-56 -7 -92 -35 -122 -95 -24 -47 -25
-58 -28 -262 l-3 -214 -36 -31 c-20 -18 -41 -37 -47 -42 -6 -6 -30 -25 -54
-44 -117 -91 -134 -250 -39 -358 48 -55 101 -77 182 -77 80 0 117 16 204 88
30 25 67 50 82 56 14 6 32 22 39 34 6 13 62 63 122 111 61 49 121 100 134 114
34 37 56 100 52 152 l-3 45 -32 -8 c-18 -5 -49 -25 -68 -45 -20 -20 -42 -38
-49 -39 -20 -3 -26 62 -26 262 0 107 -4 174 -10 174 -20 0 -43 -50 -36 -80 3
-18 1 -30 -5 -30 -5 0 -10 21 -9 48 3 131 -44 223 -125 243 l-40 10 3 110 c3
104 2 109 -17 109 -19 0 -21 -7 -23 -112z m109 -188 c56 -34 61 -53 68 -310 6
-225 5 -237 -15 -275 -13 -26 -18 -49 -14 -67 8 -38 -10 -35 -35 6 -42 68
-146 147 -210 161 -19 4 -29 10 -22 14 8 5 12 68 14 197 l2 191 29 37 c49 64
123 83 183 46z m-276 -302 c-1 -79 -4 -145 -7 -147 -2 -2 -4 65 -4 149 0 84 3
150 7 147 3 -4 5 -71 4 -149z m380 -50 c-3 -140 -11 -138 -11 2 0 62 3 111 6
107 4 -3 6 -52 5 -109z m42 -202 c15 -4 27 -13 27 -21 0 -8 -6 -12 -15 -9 -8
3 -25 -5 -38 -20 -26 -28 -37 -25 -37 10 0 32 10 53 23 49 7 -2 24 -6 40 -9z"/>
<path d="M1096 1639 c-9 -88 -8 -129 4 -129 6 0 10 38 10 95 0 52 -2 95 -4 95
-2 0 -6 -28 -10 -61z"/>
</g>
</svg>
